# Blender v3.4.1 OBJ File: 'set_obj13_irregular_block.blend'
# www.blender.org
mtllib set_obj13_irregular_block.mtl
o Cube
v 1.000000 -1.000000 1.000000
v 0.860483 -1.074041 -0.879565
v -1.000000 -1.000000 1.000000
v -1.000000 -1.000000 -1.000000
v 0.884099 0.821569 0.676058
v 1.023710 1.019616 -0.879586
v -0.830663 0.877042 0.784524
v -1.000000 1.000000 -1.000000
vt 0.625000 0.500000
vt 0.875000 0.500000
vt 0.875000 0.750000
vt 0.625000 0.750000
vt 0.375000 0.750000
vt 0.625000 1.000000
vt 0.375000 1.000000
vt 0.375000 0.000000
vt 0.625000 0.000000
vt 0.625000 0.250000
vt 0.375000 0.250000
vt 0.125000 0.500000
vt 0.375000 0.500000
vt 0.125000 0.750000
vn 0.0310 0.1438 0.9891
vn -0.9979 0.0461 0.0461
vn 0.0092 0.9954 0.0956
vn 0.0619 -0.0025 -0.9981
vn -0.0198 -0.9996 0.0198
vn 0.9999 -0.0121 -0.0004
usemtl Material
s off
f 1/1/1 5/2/1 7/3/1 3/4/1
f 4/5/2 3/4/2 7/6/2 8/7/2
f 8/8/3 7/9/3 5/10/3 6/11/3
f 6/12/4 2/13/4 4/5/4 8/14/4
f 2/13/5 1/1/5 3/4/5 4/5/5
f 6/11/6 5/10/6 1/1/6 2/13/6
