# Blender v3.4.1 OBJ File: 'set_obj12_cylinder_corner.blend'
# www.blender.org
mtllib set_obj12_cylinder_corner.mtl
o 柱体
v 0.869371 0.000000 -1.000000
v 1.000000 0.000000 -0.870000
v 0.869371 -0.000000 1.000000
v 1.000000 0.000000 0.870000
v 0.852666 -0.169606 -1.000000
v 0.980785 -0.195090 -0.870000
v 0.852666 -0.169606 1.000000
v 0.980785 -0.195090 0.870000
v 0.803194 -0.332694 -1.000000
v 0.923880 -0.382683 -0.870000
v 0.803194 -0.332694 1.000000
v 0.923880 -0.382683 0.870000
v 0.722856 -0.482997 -1.000000
v 0.831470 -0.555570 -0.870000
v 0.722856 -0.482997 1.000000
v 0.831470 -0.555570 0.870000
v 0.614738 -0.614738 -1.000000
v 0.707107 -0.707107 -0.870000
v 0.614738 -0.614738 1.000000
v 0.707107 -0.707107 0.870000
v 0.482997 -0.722856 -1.000000
v 0.555570 -0.831470 -0.870000
v 0.482997 -0.722856 1.000000
v 0.555570 -0.831470 0.870000
v 0.332694 -0.803194 -1.000000
v 0.382683 -0.923880 -0.870000
v 0.332694 -0.803194 1.000000
v 0.382683 -0.923880 0.870000
v 0.169606 -0.852666 -1.000000
v 0.195090 -0.980785 -0.870000
v 0.169606 -0.852666 1.000000
v 0.195090 -0.980785 0.870000
v 0.000000 -0.869371 -1.000000
v 0.000000 -1.000000 -0.870000
v -0.000000 -0.869371 1.000000
v 0.000000 -1.000000 0.870000
v -0.169606 -0.852666 -1.000000
v -0.195090 -0.980785 -0.870000
v -0.169606 -0.852666 1.000000
v -0.195090 -0.980785 0.870000
v -0.332694 -0.803194 -1.000000
v -0.382683 -0.923880 -0.870000
v -0.332694 -0.803194 1.000000
v -0.382683 -0.923880 0.870000
v -0.482997 -0.722856 -1.000000
v -0.555570 -0.831470 -0.870000
v -0.482997 -0.722856 1.000000
v -0.555570 -0.831470 0.870000
v -0.614738 -0.614738 -1.000000
v -0.707107 -0.707107 -0.870000
v -0.614738 -0.614738 1.000000
v -0.707107 -0.707107 0.870000
v -0.722856 -0.482997 -1.000000
v -0.831470 -0.555570 -0.870000
v -0.722856 -0.482997 1.000000
v -0.831470 -0.555570 0.870000
v -0.803194 -0.332694 -1.000000
v -0.923880 -0.382683 -0.870000
v -0.803194 -0.332694 1.000000
v -0.923880 -0.382683 0.870000
v -0.852666 -0.169606 -1.000000
v -0.980785 -0.195090 -0.870000
v -0.852666 -0.169606 1.000000
v -0.980785 -0.195090 0.870000
v -0.869371 -0.000000 -1.000000
v -1.000000 0.000000 -0.870000
v -0.869371 0.000000 1.000000
v -1.000000 0.000000 0.870000
v -0.852666 0.169606 -1.000000
v -0.980785 0.195090 -0.870000
v -0.852666 0.169606 1.000000
v -0.980785 0.195090 0.870000
v -0.803194 0.332694 -1.000000
v -0.923880 0.382683 -0.870000
v -0.803194 0.332694 1.000000
v -0.923880 0.382683 0.870000
v -0.722856 0.482997 -1.000000
v -0.831470 0.555570 -0.870000
v -0.722856 0.482997 1.000000
v -0.831470 0.555570 0.870000
v -0.614738 0.614738 -1.000000
v -0.707107 0.707107 -0.870000
v -0.614738 0.614738 1.000000
v -0.707107 0.707107 0.870000
v -0.482997 0.722856 -1.000000
v -0.555570 0.831470 -0.870000
v -0.482997 0.722856 1.000000
v -0.555570 0.831470 0.870000
v -0.332694 0.803194 -1.000000
v -0.382683 0.923880 -0.870000
v -0.332694 0.803194 1.000000
v -0.382683 0.923880 0.870000
v -0.169606 0.852666 -1.000000
v -0.195090 0.980785 -0.870000
v -0.169606 0.852666 1.000000
v -0.195090 0.980785 0.870000
v -0.000000 0.869371 -1.000000
v 0.000000 1.000000 -0.870000
v 0.000000 0.869371 1.000000
v 0.000000 1.000000 0.870000
v 0.169606 0.852666 -1.000000
v 0.195090 0.980785 -0.870000
v 0.169606 0.852666 1.000000
v 0.195090 0.980785 0.870000
v 0.332694 0.803194 -1.000000
v 0.382683 0.923880 -0.870000
v 0.332694 0.803194 1.000000
v 0.382683 0.923880 0.870000
v 0.482997 0.722856 -1.000000
v 0.555570 0.831470 -0.870000
v 0.482997 0.722856 1.000000
v 0.555570 0.831470 0.870000
v 0.614738 0.614738 -1.000000
v 0.707107 0.707107 -0.870000
v 0.614738 0.614738 1.000000
v 0.707107 0.707107 0.870000
v 0.722856 0.482997 -1.000000
v 0.831470 0.555570 -0.870000
v 0.722856 0.482997 1.000000
v 0.831470 0.555570 0.870000
v 0.803194 0.332694 -1.000000
v 0.923880 0.382683 -0.870000
v 0.803194 0.332694 1.000000
v 0.923880 0.382683 0.870000
v 0.852666 0.169606 -1.000000
v 0.980785 0.195090 -0.870000
v 0.852666 0.169606 1.000000
v 0.980785 0.195090 0.870000
vt 0.031250 0.532500
vt 0.031250 0.967500
vt 0.000000 0.967500
vt 0.000000 0.532500
vt 0.937500 0.532500
vt 0.937500 0.967500
vt 0.906250 0.967500
vt 0.906250 0.532500
vt 0.875000 0.967500
vt 0.875000 0.532500
vt 0.843750 0.967500
vt 0.843750 0.532500
vt 0.812500 0.967500
vt 0.812500 0.532500
vt 0.781250 0.967500
vt 0.781250 0.532500
vt 0.750000 0.967500
vt 0.750000 0.532500
vt 0.718750 0.967500
vt 0.718750 0.532500
vt 0.687500 0.967500
vt 0.687500 0.532500
vt 0.656250 0.967500
vt 0.656250 0.532500
vt 0.625000 0.967500
vt 0.625000 0.532500
vt 0.593750 0.967500
vt 0.593750 0.532500
vt 0.562500 0.967500
vt 0.562500 0.532500
vt 0.531250 0.967500
vt 0.531250 0.532500
vt 0.500000 0.967500
vt 0.500000 0.532500
vt 0.468750 0.967500
vt 0.468750 0.532500
vt 0.437500 0.967500
vt 0.437500 0.532500
vt 0.406250 0.967500
vt 0.406250 0.532500
vt 0.375000 0.967500
vt 0.375000 0.532500
vt 0.343750 0.967500
vt 0.343750 0.532500
vt 0.312500 0.967500
vt 0.312500 0.532500
vt 0.281250 0.967500
vt 0.281250 0.532500
vt 0.250000 0.967500
vt 0.250000 0.532500
vt 0.218750 0.967500
vt 0.218750 0.532500
vt 0.187500 0.967500
vt 0.187500 0.532500
vt 0.156250 0.967500
vt 0.156250 0.532500
vt 0.125000 0.967500
vt 0.125000 0.532500
vt 0.093750 0.967500
vt 0.093750 0.532500
vt 0.062500 0.967500
vt 0.062500 0.532500
vt 0.968750 0.532500
vt 0.968750 0.967500
vt 0.290706 0.454640
vt 0.250000 0.458649
vt 0.209295 0.454640
vt 0.170153 0.442767
vt 0.134081 0.423485
vt 0.102463 0.397537
vt 0.076515 0.365919
vt 0.057233 0.329847
vt 0.045360 0.290705
vt 0.041351 0.250000
vt 0.045360 0.209295
vt 0.057233 0.170153
vt 0.076515 0.134081
vt 0.102463 0.102463
vt 0.134081 0.076515
vt 0.170153 0.057233
vt 0.209295 0.045360
vt 0.250000 0.041351
vt 0.290705 0.045360
vt 0.329847 0.057233
vt 0.365919 0.076515
vt 0.397537 0.102463
vt 0.423485 0.134081
vt 0.442767 0.170153
vt 0.454640 0.209295
vt 0.458649 0.250000
vt 0.454640 0.290705
vt 0.442767 0.329847
vt 0.423485 0.365919
vt 0.397537 0.397537
vt 0.365919 0.423485
vt 0.329847 0.442767
vt 1.000000 0.532500
vt 1.000000 0.967500
vt 0.750000 0.490000
vt 0.796822 0.485388
vt 0.790706 0.454640
vt 0.750000 0.458649
vt 0.296822 0.485388
vt 0.250000 0.490000
vt 0.841844 0.471731
vt 0.829847 0.442767
vt 0.341844 0.471731
vt 0.883337 0.449553
vt 0.865919 0.423485
vt 0.383337 0.449553
vt 0.919706 0.419706
vt 0.897537 0.397537
vt 0.419706 0.419706
vt 0.949553 0.383337
vt 0.923485 0.365919
vt 0.449553 0.383337
vt 0.971731 0.341844
vt 0.942767 0.329847
vt 0.471731 0.341844
vt 0.985388 0.296822
vt 0.954640 0.290705
vt 0.485388 0.296822
vt 0.990000 0.250000
vt 0.958649 0.250000
vt 0.490000 0.250000
vt 0.985388 0.203178
vt 0.954640 0.209295
vt 0.485388 0.203178
vt 0.971731 0.158156
vt 0.942767 0.170153
vt 0.471731 0.158156
vt 0.949553 0.116663
vt 0.923485 0.134081
vt 0.449553 0.116663
vt 0.919706 0.080294
vt 0.897537 0.102463
vt 0.419706 0.080294
vt 0.883337 0.050447
vt 0.865919 0.076515
vt 0.383337 0.050447
vt 0.841844 0.028269
vt 0.829847 0.057233
vt 0.341844 0.028269
vt 0.796822 0.014612
vt 0.790706 0.045360
vt 0.296822 0.014612
vt 0.750000 0.010000
vt 0.750000 0.041351
vt 0.250000 0.010000
vt 0.703178 0.014612
vt 0.709295 0.045360
vt 0.203178 0.014612
vt 0.658156 0.028269
vt 0.670154 0.057233
vt 0.158156 0.028269
vt 0.616663 0.050447
vt 0.634081 0.076515
vt 0.116663 0.050447
vt 0.580294 0.080294
vt 0.602463 0.102463
vt 0.080294 0.080294
vt 0.550447 0.116663
vt 0.576515 0.134081
vt 0.050447 0.116663
vt 0.528269 0.158156
vt 0.557234 0.170153
vt 0.028269 0.158156
vt 0.514612 0.203178
vt 0.545360 0.209295
vt 0.014612 0.203178
vt 0.510000 0.250000
vt 0.541351 0.250000
vt 0.010000 0.250000
vt 0.514612 0.296822
vt 0.545360 0.290705
vt 0.014612 0.296822
vt 0.528269 0.341844
vt 0.557233 0.329847
vt 0.028269 0.341844
vt 0.550447 0.383337
vt 0.576515 0.365919
vt 0.050447 0.383337
vt 0.580294 0.419706
vt 0.602463 0.397537
vt 0.080294 0.419706
vt 0.616663 0.449553
vt 0.634081 0.423485
vt 0.116663 0.449553
vt 0.658156 0.471731
vt 0.670153 0.442767
vt 0.158156 0.471731
vt 0.703178 0.485388
vt 0.709295 0.454640
vt 0.203178 0.485388
vn 0.9952 0.0980 0.0000
vn 0.8819 -0.4714 0.0000
vn 0.7730 -0.6344 0.0000
vn 0.6344 -0.7730 0.0000
vn 0.4714 -0.8819 0.0000
vn 0.2903 -0.9569 0.0000
vn 0.0980 -0.9952 0.0000
vn -0.0980 -0.9952 0.0000
vn -0.2903 -0.9569 0.0000
vn -0.4714 -0.8819 0.0000
vn -0.6344 -0.7730 0.0000
vn -0.7730 -0.6344 0.0000
vn -0.8819 -0.4714 0.0000
vn -0.9569 -0.2903 0.0000
vn -0.9952 -0.0980 0.0000
vn -0.9952 0.0980 0.0000
vn -0.9569 0.2903 0.0000
vn -0.8819 0.4714 0.0000
vn -0.7730 0.6344 0.0000
vn -0.6344 0.7730 0.0000
vn -0.4714 0.8819 0.0000
vn -0.2903 0.9569 0.0000
vn -0.0980 0.9952 0.0000
vn 0.0980 0.9952 0.0000
vn 0.2903 0.9569 0.0000
vn 0.4714 0.8819 0.0000
vn 0.6344 0.7730 0.0000
vn 0.7730 0.6344 0.0000
vn 0.8819 0.4714 0.0000
vn 0.9569 0.2903 0.0000
vn 0.9569 -0.2903 0.0000
vn -0.0000 0.0000 1.0000
vn 0.9952 -0.0980 0.0000
vn 0.7037 -0.0693 -0.7071
vn 0.7037 -0.0693 0.7071
vn 0.6767 -0.2053 -0.7071
vn 0.6767 -0.2053 0.7071
vn 0.6236 -0.3333 -0.7071
vn 0.6236 -0.3333 0.7071
vn 0.5466 -0.4486 -0.7071
vn 0.5466 -0.4486 0.7071
vn 0.4486 -0.5466 -0.7071
vn 0.4486 -0.5466 0.7071
vn 0.3333 -0.6236 -0.7071
vn 0.3333 -0.6236 0.7071
vn 0.2053 -0.6767 -0.7071
vn 0.2053 -0.6767 0.7071
vn 0.0693 -0.7037 -0.7071
vn 0.0693 -0.7037 0.7071
vn -0.0693 -0.7037 -0.7071
vn -0.0693 -0.7037 0.7071
vn -0.2053 -0.6767 -0.7071
vn -0.2053 -0.6767 0.7071
vn -0.3333 -0.6236 -0.7071
vn -0.3333 -0.6236 0.7071
vn -0.4486 -0.5466 -0.7071
vn -0.4486 -0.5466 0.7071
vn -0.5466 -0.4486 -0.7071
vn -0.5466 -0.4486 0.7071
vn -0.6236 -0.3333 -0.7071
vn -0.6236 -0.3333 0.7071
vn -0.6767 -0.2053 -0.7071
vn -0.6767 -0.2053 0.7071
vn -0.7037 -0.0693 -0.7071
vn -0.7037 -0.0693 0.7071
vn -0.7037 0.0693 -0.7071
vn -0.7037 0.0693 0.7071
vn -0.6767 0.2053 -0.7071
vn -0.6767 0.2053 0.7071
vn -0.6236 0.3333 -0.7071
vn -0.6236 0.3333 0.7071
vn -0.5466 0.4486 -0.7071
vn -0.5466 0.4486 0.7071
vn -0.4486 0.5466 -0.7071
vn -0.4486 0.5466 0.7071
vn -0.3333 0.6236 -0.7071
vn -0.3333 0.6236 0.7071
vn -0.2053 0.6767 -0.7071
vn -0.2053 0.6767 0.7071
vn -0.0693 0.7037 -0.7071
vn -0.0693 0.7037 0.7071
vn 0.0693 0.7037 -0.7071
vn 0.0693 0.7037 0.7071
vn 0.2053 0.6767 -0.7071
vn 0.2053 0.6767 0.7071
vn 0.3333 0.6236 -0.7071
vn 0.3333 0.6236 0.7071
vn 0.4486 0.5466 -0.7071
vn 0.4486 0.5466 0.7071
vn 0.5466 0.4486 -0.7071
vn 0.5466 0.4486 0.7071
vn 0.6236 0.3333 -0.7071
vn 0.6236 0.3333 0.7071
vn 0.6767 0.2053 -0.7071
vn 0.6767 0.2053 0.7071
vn 0.7037 0.0693 -0.7071
vn 0.7037 0.0693 0.7071
vn 0.0000 0.0000 -1.0000
usemtl None
s off
f 126/1/1 128/2/1 4/3/1 2/4/1
f 10/5/2 12/6/2 16/7/2 14/8/2
f 14/8/3 16/7/3 20/9/3 18/10/3
f 18/10/4 20/9/4 24/11/4 22/12/4
f 22/12/5 24/11/5 28/13/5 26/14/5
f 26/14/6 28/13/6 32/15/6 30/16/6
f 30/16/7 32/15/7 36/17/7 34/18/7
f 34/18/8 36/17/8 40/19/8 38/20/8
f 38/20/9 40/19/9 44/21/9 42/22/9
f 42/22/10 44/21/10 48/23/10 46/24/10
f 46/24/11 48/23/11 52/25/11 50/26/11
f 50/26/12 52/25/12 56/27/12 54/28/12
f 54/28/13 56/27/13 60/29/13 58/30/13
f 58/30/14 60/29/14 64/31/14 62/32/14
f 62/32/15 64/31/15 68/33/15 66/34/15
f 66/34/16 68/33/16 72/35/16 70/36/16
f 70/36/17 72/35/17 76/37/17 74/38/17
f 74/38/18 76/37/18 80/39/18 78/40/18
f 78/40/19 80/39/19 84/41/19 82/42/19
f 82/42/20 84/41/20 88/43/20 86/44/20
f 86/44/21 88/43/21 92/45/21 90/46/21
f 90/46/22 92/45/22 96/47/22 94/48/22
f 94/48/23 96/47/23 100/49/23 98/50/23
f 98/50/24 100/49/24 104/51/24 102/52/24
f 102/52/25 104/51/25 108/53/25 106/54/25
f 106/54/26 108/53/26 112/55/26 110/56/26
f 110/56/27 112/55/27 116/57/27 114/58/27
f 114/58/28 116/57/28 120/59/28 118/60/28
f 118/60/29 120/59/29 124/61/29 122/62/29
f 122/62/30 124/61/30 128/2/30 126/1/30
f 6/63/31 8/64/31 12/6/31 10/5/31
f 7/65/32 3/66/32 127/67/32 123/68/32 119/69/32 115/70/32 111/71/32 107/72/32 103/73/32 99/74/32 95/75/32 91/76/32 87/77/32 83/78/32 79/79/32 75/80/32 71/81/32 67/82/32 63/83/32 59/84/32 55/85/32 51/86/32 47/87/32 43/88/32 39/89/32 35/90/32 31/91/32 27/92/32 23/93/32 19/94/32 15/95/32 11/96/32
f 2/97/33 4/98/33 8/64/33 6/63/33
f 2/99/34 6/100/34 5/101/34 1/102/34
f 8/103/35 4/104/35 3/66/35 7/65/35
f 6/100/36 10/105/36 9/106/36 5/101/36
f 12/107/37 8/103/37 7/65/37 11/96/37
f 10/105/38 14/108/38 13/109/38 9/106/38
f 16/110/39 12/107/39 11/96/39 15/95/39
f 14/108/40 18/111/40 17/112/40 13/109/40
f 20/113/41 16/110/41 15/95/41 19/94/41
f 18/111/42 22/114/42 21/115/42 17/112/42
f 24/116/43 20/113/43 19/94/43 23/93/43
f 22/114/44 26/117/44 25/118/44 21/115/44
f 28/119/45 24/116/45 23/93/45 27/92/45
f 26/117/46 30/120/46 29/121/46 25/118/46
f 32/122/47 28/119/47 27/92/47 31/91/47
f 30/120/48 34/123/48 33/124/48 29/121/48
f 36/125/49 32/122/49 31/91/49 35/90/49
f 34/123/50 38/126/50 37/127/50 33/124/50
f 40/128/51 36/125/51 35/90/51 39/89/51
f 38/126/52 42/129/52 41/130/52 37/127/52
f 44/131/53 40/128/53 39/89/53 43/88/53
f 42/129/54 46/132/54 45/133/54 41/130/54
f 48/134/55 44/131/55 43/88/55 47/87/55
f 46/132/56 50/135/56 49/136/56 45/133/56
f 52/137/57 48/134/57 47/87/57 51/86/57
f 50/135/58 54/138/58 53/139/58 49/136/58
f 56/140/59 52/137/59 51/86/59 55/85/59
f 54/138/60 58/141/60 57/142/60 53/139/60
f 60/143/61 56/140/61 55/85/61 59/84/61
f 58/141/62 62/144/62 61/145/62 57/142/62
f 64/146/63 60/143/63 59/84/63 63/83/63
f 62/144/64 66/147/64 65/148/64 61/145/64
f 68/149/65 64/146/65 63/83/65 67/82/65
f 66/147/66 70/150/66 69/151/66 65/148/66
f 72/152/67 68/149/67 67/82/67 71/81/67
f 70/150/68 74/153/68 73/154/68 69/151/68
f 76/155/69 72/152/69 71/81/69 75/80/69
f 74/153/70 78/156/70 77/157/70 73/154/70
f 80/158/71 76/155/71 75/80/71 79/79/71
f 78/156/72 82/159/72 81/160/72 77/157/72
f 84/161/73 80/158/73 79/79/73 83/78/73
f 82/159/74 86/162/74 85/163/74 81/160/74
f 88/164/75 84/161/75 83/78/75 87/77/75
f 86/162/76 90/165/76 89/166/76 85/163/76
f 92/167/77 88/164/77 87/77/77 91/76/77
f 90/165/78 94/168/78 93/169/78 89/166/78
f 96/170/79 92/167/79 91/76/79 95/75/79
f 94/168/80 98/171/80 97/172/80 93/169/80
f 100/173/81 96/170/81 95/75/81 99/74/81
f 98/171/82 102/174/82 101/175/82 97/172/82
f 104/176/83 100/173/83 99/74/83 103/73/83
f 102/174/84 106/177/84 105/178/84 101/175/84
f 108/179/85 104/176/85 103/73/85 107/72/85
f 106/177/86 110/180/86 109/181/86 105/178/86
f 112/182/87 108/179/87 107/72/87 111/71/87
f 110/180/88 114/183/88 113/184/88 109/181/88
f 116/185/89 112/182/89 111/71/89 115/70/89
f 114/183/90 118/186/90 117/187/90 113/184/90
f 120/188/91 116/185/91 115/70/91 119/69/91
f 118/186/92 122/189/92 121/190/92 117/187/92
f 124/191/93 120/188/93 119/69/93 123/68/93
f 122/189/94 126/192/94 125/193/94 121/190/94
f 128/194/95 124/191/95 123/68/95 127/67/95
f 126/192/96 2/99/96 1/102/96 125/193/96
f 4/104/97 128/194/97 127/67/97 3/66/97
f 1/102/98 5/101/98 9/106/98 13/109/98 17/112/98 21/115/98 25/118/98 29/121/98 33/124/98 37/127/98 41/130/98 45/133/98 49/136/98 53/139/98 57/142/98 61/145/98 65/148/98 69/151/98 73/154/98 77/157/98 81/160/98 85/163/98 89/166/98 93/169/98 97/172/98 101/175/98 105/178/98 109/181/98 113/184/98 117/187/98 121/190/98 125/193/98
