# Blender v3.4.1 OBJ File: 'set_obj14_irregular_block_cross.blend'
# www.blender.org
mtllib set_obj14_irregular_block_cross.mtl
o Cube
v -0.413011 0.423172 1.000000
v 0.417761 0.423172 1.000000
v -0.413011 0.423172 -1.000000
v 0.417761 0.423172 -1.000000
v -0.413011 -0.425168 1.000000
v 0.407957 -0.425168 1.000000
v -0.413011 -0.425168 -1.000000
v 0.407957 -0.425168 -1.000000
v 0.407957 -1.000000 1.000000
v 0.407957 -1.000000 -1.000000
v 1.000000 -0.425168 1.000000
v 1.000000 -0.425168 -1.000000
v -1.000000 -0.425168 1.000000
v -1.000000 -0.425168 -1.000000
v -0.413011 -1.000000 -1.000000
v -0.413011 -1.000000 1.000000
v -1.000000 0.423172 -1.000000
v -1.000000 0.423172 1.000000
v -0.413011 1.000000 1.000000
v -0.413011 1.000000 -1.000000
v 0.417761 1.000000 1.000000
v 0.417761 1.000000 -1.000000
v 1.000000 0.423172 1.000000
v 1.000000 0.423172 -1.000000
vt 0.875000 0.572780
vt 0.875000 0.676626
vt 0.802896 0.676626
vt 0.802897 0.750000
vt 0.696854 0.750000
vt 0.696854 0.676626
vt 0.625000 0.676626
vt 0.625000 0.574005
vt 0.696854 0.574005
vt 0.696854 0.500000
vt 0.802896 0.500000
vt 0.802896 0.572780
vt 0.375000 0.927896
vt 0.375000 0.821854
vt 0.625000 0.821854
vt 0.625000 0.927896
vt 0.375000 0.073374
vt 0.625000 0.073374
vt 0.625000 0.177220
vt 0.375000 0.177220
vt 0.303146 0.574005
vt 0.375000 0.574005
vt 0.375000 0.676626
vt 0.303146 0.676626
vt 0.303146 0.750000
vt 0.197104 0.750000
vt 0.197104 0.676626
vt 0.125000 0.676626
vt 0.125000 0.572780
vt 0.197104 0.572780
vt 0.197104 0.500000
vt 0.303146 0.500000
vt 0.625000 0.322104
vt 0.625000 0.428146
vt 0.375000 0.428146
vt 0.375000 0.322104
vt 0.375000 0.760487
vt 0.375000 1.000000
vt 0.625000 1.000000
vt 0.625000 0.760487
vt 0.625000 0.000000
vt 0.375000 0.000000
vt 0.375000 0.246685
vt 0.625000 0.246685
vt 0.375000 0.250000
vt 0.625000 0.250000
vt 0.625000 0.005421
vt 0.375000 0.005421
vt 0.375000 0.489513
vt 0.625000 0.489513
vt 0.625000 0.744579
vt 0.625000 0.500000
vt 0.375000 0.500000
vt 0.375000 0.744579
vt 0.625000 0.259655
vt 0.375000 0.259655
vt 0.625000 0.750000
vt 0.375000 0.750000
vt 0.375000 0.990345
vt 0.625000 0.990345
vt 0.375000 0.507400
vt 0.625000 0.507400
vn 0.0000 0.0000 1.0000
vn -1.0000 0.0000 0.0000
vn 0.0000 1.0000 0.0000
vn -0.0000 0.0000 -1.0000
vn 0.0000 -1.0000 0.0000
vn 1.0000 0.0000 0.0000
usemtl Material
s off
f 21/1/1 19/2/1 1/3/1 18/4/1 13/5/1 5/6/1 16/7/1 9/8/1 6/9/1 11/10/1 23/11/1 2/12/1
f 17/13/2 14/14/2 13/15/2 18/16/2
f 20/17/3 19/18/3 21/19/3 22/20/3
f 8/21/4 10/22/4 15/23/4 7/24/4 14/25/4 17/26/4 3/27/4 20/28/4 22/29/4 4/30/4 24/31/4 12/32/4
f 15/23/5 10/22/5 9/8/5 16/7/5
f 23/33/6 11/34/6 12/35/6 24/36/6
f 10/37/6 8/38/6 6/39/6 9/40/6
f 6/41/5 8/42/5 12/43/5 11/44/5
f 7/45/5 5/46/5 13/47/5 14/48/5
f 5/46/2 7/45/2 15/49/2 16/50/2
f 18/51/3 1/52/3 3/53/3 17/54/3
f 3/53/2 1/52/2 19/55/2 20/56/2
f 2/57/6 4/58/6 22/59/6 21/60/6
f 24/61/3 4/58/3 2/57/3 23/62/3
