# Blender v3.4.1 OBJ File: 'set_obj4_block.blend'
# www.blender.org
mtllib set_obj4_block.mtl
o Cube.001
v 1.000000 -1.000000 1.000000
v 1.000000 -1.000000 -1.000000
v -1.000000 -1.000000 1.000000
v -1.000000 -1.000000 -1.000000
v 1.000000 1.000000 1.000000
v 1.000000 1.000000 -1.000000
v -1.000000 1.000000 1.000000
v -1.000000 1.000000 -1.000000
v 0.399971 1.000000 1.000000
v 1.000000 -0.399971 1.000000
v 1.000000 0.428601 1.000000
v -0.428601 1.000000 1.000000
v -1.000000 0.399971 1.000000
v -1.000000 -0.428601 1.000000
v -0.399971 -1.000000 1.000000
v 0.428601 -1.000000 1.000000
v -1.000000 -0.428601 0.058395
v -1.000000 0.399971 0.058395
v -0.428601 1.000000 0.058395
v 0.399971 1.000000 0.058395
v 0.428601 -1.000000 0.058395
v -0.399971 -1.000000 0.058395
v 1.000000 0.428601 0.058395
v 1.000000 -0.399971 0.058395
vt 0.875000 0.678575
vt 0.875000 0.750000
vt 0.799996 0.750000
vt 0.875000 0.500000
vt 0.875000 0.575004
vt 0.803575 0.500000
vt 0.625000 0.571425
vt 0.625000 0.500000
vt 0.700004 0.500000
vt 0.625000 0.750000
vt 0.625000 0.674996
vt 0.696425 0.750000
vt 0.625000 0.924996
vt 0.625000 1.000000
vt 0.375000 1.000000
vt 0.375000 0.750000
vt 0.625000 0.821425
vt 0.507299 0.821425
vt 0.507299 0.924996
vt 0.625000 0.174996
vt 0.625000 0.250000
vt 0.375000 0.250000
vt 0.375000 0.000000
vt 0.625000 0.000000
vt 0.625000 0.071425
vt 0.507299 0.071425
vt 0.507299 0.174996
vt 0.125000 0.500000
vt 0.375000 0.500000
vt 0.125000 0.750000
vt 0.507299 0.571425
vt 0.507299 0.674996
vt 0.625000 0.424996
vt 0.625000 0.321425
vt 0.507299 0.321425
vt 0.507299 0.424996
vt 0.492701 0.928575
vt 0.492701 0.825004
vt 0.375000 0.825004
vt 0.375000 0.928575
vt 0.375000 0.178575
vt 0.492701 0.178575
vt 0.492701 0.075004
vt 0.375000 0.075004
vt 0.299996 0.750000
vt 0.375000 0.678575
vt 0.375000 0.575004
vt 0.303575 0.500000
vt 0.200004 0.500000
vt 0.125000 0.571425
vt 0.125000 0.674996
vt 0.196425 0.750000
vt 0.492701 0.678575
vt 0.492701 0.575004
vt 0.375000 0.325004
vt 0.375000 0.428575
vt 0.492701 0.428575
vt 0.492701 0.325004
vn 0.0000 0.0000 1.0000
vn -1.0000 0.0000 0.0000
vn 0.0000 1.0000 0.0000
vn 0.0000 0.0000 -1.0000
vn 0.0000 -1.0000 0.0000
vn 1.0000 0.0000 0.0000
vn 0.7242 -0.6896 0.0000
vn -0.6896 -0.7242 0.0000
vn 0.6896 0.7242 0.0000
vn -0.7242 0.6896 0.0000
usemtl Material.001
s off
f 12/1/1 7/2/1 13/3/1
f 5/4/1 9/5/1 11/6/1
f 16/7/1 1/8/1 10/9/1
f 3/10/1 15/11/1 14/12/1
f 13/13/2 7/14/2 8/15/2 4/16/2 3/10/2 14/17/2 17/18/2 18/19/2
f 9/20/3 5/21/3 6/22/3 8/23/3 7/24/3 12/25/3 19/26/3 20/27/3
f 6/28/4 2/29/4 4/16/4 8/30/4
f 15/11/5 3/10/5 4/16/5 2/29/5 1/8/5 16/7/5 21/31/5 22/32/5
f 10/33/6 1/8/6 2/29/6 6/22/6 5/21/6 11/34/6 23/35/6 24/36/6
f 12/37/7 13/38/7 18/39/7 19/40/7
f 23/41/8 11/42/8 9/43/8 20/44/8
f 18/45/1 17/46/1 22/47/1 21/48/1 24/49/1 23/50/1 20/51/1 19/52/1
f 22/47/9 17/46/9 14/53/9 15/54/9
f 24/55/10 21/56/10 16/57/10 10/58/10
